<svg width="12" height="18" viewBox="0 0 12 18" fill="none" xmlns="http://www.w3.org/2000/svg">
<path d="M9.1317 8.12156V3.19806C9.1317 1.43422 7.69733 0 5.92996 0C4.16612 0 2.73175 1.43422 2.73175 3.19806V8.12156C2.73175 9.88894 4.16597 11.3233 5.92996 11.3233C7.69733 11.3233 9.1317 9.88909 9.1317 8.12172V8.12156Z" fill="white"/>
<path d="M0.350627 6.03516C0.157775 6.03516 0 6.18941 0 6.38578V8.1216C0 10.8955 1.91473 13.2311 4.49217 13.8796V15.3244H3.42267C2.59855 15.3244 1.92871 15.9942 1.92871 16.8183V17.183C1.92871 17.3759 2.08648 17.5337 2.27934 17.5337H9.58381C9.77666 17.5337 9.93444 17.3759 9.93444 17.183V16.8183C9.93444 15.9942 9.2646 15.3244 8.44048 15.3244H7.37098V13.8796C9.94853 13.2344 11.8631 10.8954 11.8631 8.1216L11.8633 6.38578C11.8633 6.18941 11.7055 6.03516 11.5127 6.03516C11.3198 6.03516 11.162 6.18941 11.162 6.38578V8.1216C11.162 10.6605 9.34902 12.7787 6.95054 13.2555C6.6209 13.3186 6.2807 13.3537 5.9336 13.3537C5.58297 13.3537 5.24275 13.3186 4.91313 13.2555C2.5145 12.7785 0.701626 10.6605 0.701626 8.1216L0.701479 6.38578C0.701479 6.18941 0.543704 6.03516 0.350852 6.03516H0.350627Z" fill="white"/>
</svg>
