<svg width="25" height="23" viewBox="0 0 25 23" fill="none" xmlns="http://www.w3.org/2000/svg">
<path d="M16.5062 9.01788H1.60477C0.719852 9.01788 0 9.73773 0 10.6226V20.9871C0 21.8721 0.719852 22.5919 1.60477 22.5919H16.5062C17.3911 22.5919 18.1109 21.8721 18.1109 20.9871V10.6226C18.1109 9.73773 17.3911 9.01788 16.5062 9.01788ZM1.60477 9.93489H16.5062C16.8856 9.93489 17.1939 10.2432 17.1939 10.6226V19.3824H0.917009V10.6226C0.917009 10.2432 1.22535 9.93489 1.60477 9.93489ZM16.5062 21.6738H1.60477C1.22535 21.6738 0.917009 21.3654 0.917009 20.986V20.2982H17.1939V20.986C17.1939 21.3654 16.8856 21.6738 16.5062 21.6738Z" fill="white" fill-opacity="0.6"/>
<path d="M23.3069 9.91206C23.1521 9.97969 19.5059 11.5856 19.5059 14.2965C19.5059 17.0086 23.1521 18.6145 23.3069 18.681C23.4971 18.7635 23.6886 18.8048 23.8743 18.8048C24.5265 18.8048 24.9999 18.2844 24.9999 17.5679V11.0239C24.9999 10.1035 24.1688 9.54067 23.3069 9.91206ZM24.0829 17.5691C24.0829 17.8717 23.9178 17.9462 23.6714 17.8396C23.6393 17.8258 20.4229 16.4125 20.4229 14.2965C20.4229 12.1885 23.6393 10.7672 23.6702 10.7534C23.7436 10.7213 23.8147 10.7053 23.8743 10.7053C24.013 10.7053 24.0829 10.813 24.0829 11.0251V17.5691V17.5691Z" fill="white" fill-opacity="0.6"/>
<path d="M3.86175 7.72236C5.99036 7.72236 7.72351 5.99036 7.72351 3.86061C7.72351 1.73085 5.99036 0 3.86175 0C1.73315 0 0 1.732 0 3.86175C0 5.99151 1.732 7.72236 3.86175 7.72236ZM3.86175 0.917009C5.48601 0.917009 6.8065 2.2375 6.8065 3.86175C6.8065 5.48601 5.48486 6.80535 3.86175 6.80535C2.23865 6.80535 0.917009 5.48486 0.917009 3.86175C0.917009 2.23865 2.2375 0.917009 3.86175 0.917009Z" fill="white" fill-opacity="0.6"/>
<path d="M12.9595 7.72351C15.0881 7.72351 16.8212 5.99151 16.8212 3.86175C16.8212 1.732 15.0892 0 12.9595 0C10.8297 0 9.09888 1.73315 9.09888 3.8629C9.09888 5.99265 10.8309 7.72351 12.9595 7.72351ZM12.9595 0.918155C14.5837 0.918155 15.9042 2.23865 15.9042 3.8629C15.9042 5.48715 14.5837 6.80764 12.9595 6.80764C11.3352 6.80764 10.0159 5.486 10.0159 3.8629C10.0159 2.23979 11.3364 0.918155 12.9595 0.918155Z" fill="white" fill-opacity="0.6"/>
<path d="M6.91864 18.1789C7.15592 18.1789 7.39663 18.0963 7.63849 17.9313L11.475 15.3212C11.8602 15.0587 12.0688 14.6885 12.0459 14.3034C12.0229 13.9182 11.7742 13.5743 11.3615 13.3588L7.66027 11.4205C6.8086 10.9769 5.97412 11.5053 5.97412 12.4418V17.0509C5.97412 17.8304 6.44867 18.1789 6.91864 18.1789ZM6.89113 12.4418C6.89113 12.318 6.91406 12.169 7.0241 12.169C7.05734 12.169 7.12841 12.177 7.23615 12.2332L10.9374 14.1715C11.0864 14.2495 11.1289 14.3263 11.1311 14.3561C11.1334 14.3859 11.0991 14.4673 10.9604 14.5624L7.12382 17.1724C7.03556 17.232 6.96678 17.2573 6.9301 17.2607C6.9152 17.2343 6.89342 17.1679 6.89342 17.0498V12.4418H6.89113Z" fill="white" fill-opacity="0.6"/>
</svg>
